<?xml version="1.0" encoding="UTF-8" standalone="no"?>
<!-- Created with Inkscape (http://www.inkscape.org/) -->

<svg
   xmlns:dc="http://purl.org/dc/elements/1.1/"
   xmlns:cc="http://creativecommons.org/ns#"
   xmlns:rdf="http://www.w3.org/1999/02/22-rdf-syntax-ns#"
   xmlns:svg="http://www.w3.org/2000/svg"
   xmlns="http://www.w3.org/2000/svg"
   version="1.1"
   width="32"
   height="19"
   id="svg2993">
  <defs
     id="defs2995" />
  <metadata
     id="metadata2998">
    <rdf:RDF>
      <cc:Work
         rdf:about="">
        <dc:format>image/svg+xml</dc:format>
        <dc:type
           rdf:resource="http://purl.org/dc/dcmitype/StillImage" />
        <dc:title></dc:title>
      </cc:Work>
    </rdf:RDF>
  </metadata>
  <g
     transform="translate(0,-1036.3622)"
     id="layer1">
    <path
       d="m 9,1 0,1 1,0 0,-1 z M 9,2 8,2 8,3 9,3 z M 8,3 7,3 7,4 8,4 z M 7,4 6,4 6,5 7,5 z M 6,5 5,5 5,6 6,6 z M 5,6 4,6 4,7 5,7 z M 4,7 3,7 3,8 4,8 z M 3,8 2,8 2,9 1,9 l 0,1 1,0 0,1 1,0 0,-1 28,0 0,-1 -28,0 z m 0,3 0,1 1,0 0,-1 z m 1,1 0,1 1,0 0,-1 z m 1,1 0,1 1,0 0,-1 z m 1,1 0,1 1,0 0,-1 z m 1,1 0,1 1,0 0,-1 z m 1,1 0,1 1,0 0,-1 z m 1,1 0,1 1,0 0,-1 z"
       transform="translate(0,1036.3622)"
       id="path3875"
       style="fill:#ffffff;fill-opacity:1;stroke:none" />
  </g>
</svg>
