<?xml version="1.0" encoding="UTF-8" standalone="no"?>
<!-- Created with Inkscape (http://www.inkscape.org/) -->

<svg
   xmlns:dc="http://purl.org/dc/elements/1.1/"
   xmlns:cc="http://creativecommons.org/ns#"
   xmlns:rdf="http://www.w3.org/1999/02/22-rdf-syntax-ns#"
   xmlns:svg="http://www.w3.org/2000/svg"
   xmlns="http://www.w3.org/2000/svg"
   version="1.1"
   width="32"
   height="19"
   id="svg2993">
  <defs
     id="defs2995" />
  <metadata
     id="metadata2998">
    <rdf:RDF>
      <cc:Work
         rdf:about="">
        <dc:format>image/svg+xml</dc:format>
        <dc:type
           rdf:resource="http://purl.org/dc/dcmitype/StillImage" />
        <dc:title></dc:title>
      </cc:Work>
    </rdf:RDF>
  </metadata>
  <g
     transform="translate(0,-1036.3622)"
     id="layer1">
    <path
       d="m 23,1037.3622 0,1 -1,0 0,-1 z m 0,1 1,0 0,1 -1,0 z m 1,1 1,0 0,1 -1,0 z m 1,1 1,0 0,1 -1,0 z m 1,1 1,0 0,1 -1,0 z m 1,1 1,0 0,1 -1,0 z m 1,1 1,0 0,1 -1,0 z m 1,1 1,0 0,1 1,0 0,1 -1,0 0,1 -1,0 0,-1 -28,0 0,-1 28,0 z m 0,3 0,1 -1,0 0,-1 z m -1,1 0,1 -1,0 0,-1 z m -1,1 0,1 -1,0 0,-1 z m -1,1 0,1 -1,0 0,-1 z m -1,1 0,1 -1,0 0,-1 z m -1,1 0,1 -1,0 0,-1 z m -1,1 0,1 -1,0 0,-1 z"
       id="path3875"
       style="fill:#ffffff;fill-opacity:1;stroke:none" />
  </g>
</svg>
